<svg width="449" height="188" viewBox="0 0 449 188" fill="none" xmlns="http://www.w3.org/2000/svg">
<g clip-path="url(#clip0)">
<path d="M196.2 156.9L195.5 157.8L217.5 158.5L194.2 159.5L193 161L217.5 162.1L191.4 163.1L190.3 164.5L217.5 165.6L188.6 166.8L187.6 168.1L217.5 169.2L185.8 170.4L184.8 171.6L217.5 172.7L183 174L182.1 175.1L217.5 176.3L180.2 177.6L179.4 178.6L217.5 179.9L177.6 180.9L176.9 181.8L217.5 183.4L175.3 183.9L174.4 185.1H245.8V156.9H196.2Z" fill="url(#paint0_linear)"/>
<path d="M194.6 149.5L240.7 88.5H240L192 147L236.1 88.5H235.3L189.1 144.8L231.6 88.5H230.7L186.3 142.5L227.1 88.5H226L183.5 140.3L222.5 88.5H221.3L180.6 138.1L218 88.5H216.7L177.8 135.8L213.5 88.5H212L175 133.6L209 88.5H207.3L172.1 131.4L204.5 88.5H203.4L143.6 164.5V185.1H169.4L245.9 88.5H244.7L194.6 149.5Z" fill="url(#paint1_linear)"/>
<path d="M131.3 185C126.3 186.6 122.2 187.1 114.9 187.1C101 187.1 90.3 180.6 85.9 166.4H85.6C81.4 174.2 70.7 187.1 43.5 187.1C15.2 187.1 0 173.2 0 152C0 120.6 32.2 111.4 67.2 111.4H83.7V105.6C83.7 92.3 75.6 83.4 59.4 83.4C45.8 83.4 37.2 90.2 35.9 101.2H3.4C5.5 72.2 28 56.2 61.2 56.2C98.6 56.2 118.5 75.8 118.5 108.3V149.6C118.5 154.8 120.9 157.4 124.5 157.4C126.9 157.4 128.2 157.1 131 156.1L131.3 185ZM83.7 139.2V131.1H65.1C46 131.1 34.8 136.6 34.8 147.8C34.8 156.2 41.1 160.9 53.4 160.9C72.2 160.9 83.7 149.4 83.7 139.2Z" fill="#303651"/>
<path d="M449 184.6C444 186.2 440.1 187.1 432.2 187.1C411.3 187.1 400.5 174.5 400.5 151.8V0H436.3V149.7C436.3 154.7 438.9 157.5 442.6 157.5C444.7 157.5 446 157.2 448.9 156.2L449 184.6Z" fill="#303651"/>
<path d="M391.3 156.2C388.4 157.2 387.1 157.5 385 157.5C381.3 157.5 378.7 154.6 378.7 149.7V57.6H378.5H342.9H342.7V129.3C342.7 145.3 332.5 156 319.2 156C304.8 156 297.2 146.6 297.2 131.7V57.7H261V140C261 166.4 275.9 187.1 305.2 187.1C322.5 187.1 337 177.6 344.6 166.1C348.4 179.8 358.5 187.1 374.5 187.1C382.3 187.1 386.3 186.2 391.3 184.6V156.2Z" fill="#303651"/>
<path d="M143.6 56.9V57.4L205.9 58.7L143.6 60V61L205.9 62.3L143.6 63.5V64.5L205.9 65.8L143.6 67.1V68.1L205.9 69.4L143.6 70.7V71.7L205.9 72.9L143.6 74.2V75.2L205.9 76.5L143.6 77.8V78.8L205.9 80.1L143.6 81.4V82.4L205.9 83.6L143.6 84.9V85.4H246V56.9H143.6Z" fill="url(#paint2_linear)"/>
</g>
<defs>
<linearGradient id="paint0_linear" x1="245.759" y1="170.964" x2="174.414" y2="170.964" gradientUnits="userSpaceOnUse">
<stop offset="0.00889854" stop-color="#2D2D72"/>
<stop offset="0.186" stop-color="#4450A1"/>
<stop offset="0.5614" stop-color="#0892C0"/>
<stop offset="1" stop-color="#AAD8EE"/>
</linearGradient>
<linearGradient id="paint1_linear" x1="145.63" y1="186.748" x2="233.812" y2="78.7056" gradientUnits="userSpaceOnUse">
<stop offset="0.00889854" stop-color="#2D2D72"/>
<stop offset="0.186" stop-color="#4450A1"/>
<stop offset="0.5614" stop-color="#0892C0"/>
<stop offset="1" stop-color="#AAD8EE"/>
</linearGradient>
<linearGradient id="paint2_linear" x1="246.017" y1="71.1656" x2="143.602" y2="71.1656" gradientUnits="userSpaceOnUse">
<stop offset="0.00889854" stop-color="#2D2D72"/>
<stop offset="0.186" stop-color="#4450A1"/>
<stop offset="0.5614" stop-color="#0892C0"/>
<stop offset="1" stop-color="#AAD8EE"/>
</linearGradient>
<clipPath id="clip0">
<rect width="449" height="187.1" fill="white"/>
</clipPath>
</defs>
</svg>
