<?xml version="1.0" encoding="UTF-8" standalone="no"?>
<!DOCTYPE svg PUBLIC "-//W3C//DTD SVG 1.1//EN" "http://www.w3.org/Graphics/SVG/1.1/DTD/svg11.dtd">
<svg width="100%" height="100%" viewBox="0 0 1024 1024" version="1.1" xmlns="http://www.w3.org/2000/svg" xmlns:xlink="http://www.w3.org/1999/xlink" xml:space="preserve" xmlns:serif="http://www.serif.com/" style="fill-rule:evenodd;clip-rule:evenodd;stroke-linejoin:round;stroke-miterlimit:2;">
    <path d="M512.003,0.01c282.581,-0 512,229.419 512,512c0,282.581 -229.419,512 -512,512c-282.58,-0 -512,-229.419 -512,-512c0,-282.581 229.42,-512 512,-512Zm-281.446,868.312c77.395,61.239 175.183,97.815 281.446,97.815c250.642,-0 454.127,-203.485 454.127,-454.127c0,-250.642 -203.485,-454.127 -454.127,-454.127c-250.64,-0 -454.128,203.485 -454.128,454.127c-0,24.485 1.942,48.525 5.684,71.977c11.297,50.984 36.848,86.512 63.304,107.252c18.896,14.818 38.804,23.884 57.931,29.524c45.898,13.532 109.363,12.284 183.406,-22.509c60.699,-28.52 115.788,-91.008 128.057,-109.318c5.268,-7.877 7.126,-9.393 9.095,-8.338c2.899,1.553 1.762,3.894 -0.609,7.833c-17.151,28.498 -53.243,80.508 -88.561,108.337c-19.755,15.568 -41.728,31.723 -67.624,45.196c-26.458,13.762 -56.883,24.73 -80.973,29.88c-44.536,9.534 -99.346,9.438 -137.397,-14.007c12.505,19.372 26.443,37.727 41.675,54.937c19.685,2.282 53.807,4.392 94.05,-4.206c15.709,-3.358 41.326,-8.426 75.632,-28.505c24.176,-14.149 43.861,-34.986 43.861,-34.986c-0,0 -27.423,45.144 -87.588,89.731c-17.916,13.271 -45.597,26.514 -67.221,33.499l-0.04,0.015Zm-70.564,-345.998c53.664,-52.382 127.045,-84.684 207.914,-84.684c164.301,-0 297.696,133.335 297.696,297.562c0,53.258 -14.03,103.269 -38.582,146.51c11.934,-32.867 18.444,-68.328 18.444,-105.29c0,-170.573 -138.634,-309.058 -309.4,-309.058c-65.402,-0 -126.093,20.316 -176.072,54.96Zm744.831,32.741c-5.573,48.897 -17.24,89.842 -37.304,131.456c-7.282,14.936 -15.977,30.393 -24.225,43.1c-6.54,10.032 -11.518,16.868 -11.964,16.422c-0.149,-0.148 1.486,-4.83 3.715,-10.329c13.079,-32.548 19.395,-70.966 17.686,-106.858c-1.486,-30.245 2.007,-38.196 21.996,-50.68c10.552,-6.539 17.612,-12.187 24.3,-19.321c2.898,-3.121 5.424,-5.647 5.647,-5.722c0.223,0 0.298,0.818 0.149,1.932Zm-21.327,-114.364c0.52,3.344 4.235,7.283 9.14,9.809c7.803,3.939 18.429,16.869 23.111,28.164c1.932,4.682 4.83,15.531 4.31,16.125c-0.149,0.075 -1.412,-2.006 -2.824,-4.756c-3.641,-7.059 -13.227,-16.496 -22.293,-21.995c-8.695,-5.351 -12.262,-8.62 -14.565,-13.451c-2.304,-4.904 -2.23,-8.471 0.223,-15.085c1.709,-4.533 2.08,-5.127 2.303,-3.344c0.075,1.115 0.372,3.196 0.595,4.533Zm-22.739,-61.083c7.951,1.858 18.429,7.208 22.516,11.592c1.932,2.081 3.418,3.865 3.27,4.013c-0.149,0.223 -2.899,-0.892 -6.094,-2.378c-13.227,-6.093 -26.38,-7.654 -39.162,-4.607c-6.019,1.412 -6.985,1.486 -8.62,0.52c-2.898,-1.635 -2.749,-2.601 1.041,-5.202c7.134,-4.83 17.017,-6.316 27.049,-3.938Zm-327.561,-256c77.654,5.35 150.776,32.474 212.751,78.918c10.775,8.1 23.036,18.28 31.582,26.306l6.316,5.945l-5.053,-0.595c-10.998,-1.337 -14.713,-3.121 -26.9,-12.856c-22.368,-17.983 -48.822,-33.662 -77.283,-45.924c-15.903,-6.836 -18.132,-7.579 -20.584,-6.613c-3.864,1.486 -3.196,2.155 9.586,10.329c27.718,17.612 55.956,41.168 67.474,56.253c2.378,3.047 4.384,5.573 4.533,5.573c0.074,0 7.951,1.71 17.463,3.716c29.724,6.391 39.979,8.1 53.726,8.917c13.228,0.743 18.355,1.412 24.597,3.418c10.478,3.419 17.314,9.809 19.767,18.355c0.52,1.858 0.223,1.709 -2.898,-1.635c-9.364,-9.957 -31.434,-14.787 -52.761,-11.666c-21.104,3.121 -41.094,14.044 -46.741,25.562c-4.831,9.884 -0.818,22.294 11.889,36.487c4.831,5.425 6.837,6.391 16.572,8.248c16.497,3.121 21.921,4.608 27.569,7.506c9.214,4.607 12.707,3.938 25.934,-4.979l8.323,-5.573l9.066,5.424c4.979,2.973 10.329,6.465 11.815,7.803l2.676,2.378l-3.344,-0.818c-5.499,-1.188 -22.219,-0.222 -31.36,1.933c-14.639,3.418 -29.501,8.62 -42.951,15.159c-17.612,8.471 -24.374,8.248 -32.548,-1.189c-8.1,-9.363 -16.943,-17.686 -24.3,-22.962c-21.178,-15.011 -42.505,-25.043 -66.136,-31.062c-15.828,-4.087 -23.705,-4.979 -47.93,-5.499c-24.077,-0.52 -25.861,-0.817 -28.461,-5.202c-1.784,-2.972 -1.561,-5.053 0.594,-7.208c6.242,-6.242 26.009,-9.511 57.591,-9.511c16.943,-0 21.253,0.222 30.839,1.709c6.762,1.04 14.713,1.783 20.064,1.783c10.477,0.074 9.883,0.297 27.569,-10.849c13.153,-8.323 13.822,-8.695 21.476,-11.295c6.39,-2.155 10.031,-4.31 10.031,-5.945c0,-1.858 -7.282,-3.641 -14.862,-3.716c-6.093,0 -7.951,0.297 -13.896,2.378c-10.626,3.79 -15.233,3.121 -16.571,-2.303c-3.047,-12.485 -11.295,-26.604 -21.401,-36.636c-5.574,-5.647 -17.686,-14.49 -23.483,-17.24c-22.144,-10.477 -52.834,-7.951 -86.794,6.986c-4.087,1.783 -8.472,4.012 -9.735,5.053c-1.338,0.966 -4.533,2.972 -7.134,4.533l-4.756,2.749l-9.734,-1.858c-30.988,-6.093 -46.445,-7.431 -85.086,-7.505l-32.177,-0l5.796,-2.75c10.106,-4.755 27.719,-11.518 39.683,-15.085c17.611,-5.35 24.522,-8.917 24.522,-12.632c0,-2.007 -1.783,-3.642 -5.573,-5.276c-5.648,-2.304 -37.824,-0.892 -61.827,2.749c-75.574,11.518 -144.98,44.661 -209.036,99.873c-10.998,9.438 -31.359,29.502 -41.465,40.871c-4.756,5.276 -12.708,13.822 -17.612,18.95c-4.905,5.127 -11.221,12.038 -14.045,15.456c-2.824,3.344 -5.276,5.945 -5.424,5.796c-0.149,-0.148 2.229,-5.276 5.276,-11.443c55.584,-111.021 158.207,-189.79 278.367,-213.718c16.794,-3.344 22.219,-4.013 41.986,-4.904c8.992,-0.446 16.869,-0.892 17.463,-1.041c2.676,-0.668 36.635,-0.371 46.965,0.372Zm96.306,99.948c14.268,2.972 26.158,11.741 33.886,24.968c3.418,5.871 3.121,5.871 -14.416,2.304c-7.729,-1.561 -10.85,-1.784 -18.207,-1.561l-8.991,0.297l1.337,-2.6c2.23,-4.31 1.412,-11.667 -2.229,-20.733l-1.635,-3.864l2.304,-0c1.189,-0 4.83,0.52 7.951,1.189Z" style="fill:#000;"/>
</svg>
